<?xml version="1.0" encoding="utf-8"?>
<!-- Generator: Adobe Illustrator 25.0.0, SVG Export Plug-In . SVG Version: 6.00 Build 0)  -->
<svg version="1.1" id="Layer_1" xmlns="http://www.w3.org/2000/svg" xmlns:xlink="http://www.w3.org/1999/xlink" x="0px" y="0px"
	 viewBox="0 0 400 400" style="enable-background:new 0 0 400 400;" xml:space="preserve">
<style type="text/css">
	.st0{fill:#890411;}
</style>
<path class="st0" d="M240.1,142.2l62.5-62.5l-163-0.1l-0.1,0c-23.2,0-43.1,11.2-55.8,29c-7,9.8-11.8,21.2-13.6,33.6
	c-0.5,3.7-0.8,7.4-0.8,11.2c0,8.4,1.4,16.5,3.9,24.1c0.2,0.5,0.4,1,0.5,1.6c10.5,29.7,39,49.3,70.5,49.3h121l23.4,28.3H143.2
	c-5.5,0-11-0.4-16.3-1.3c-21.2-3.3-40.2-13-55.1-27c-14.4-13.5-24.9-31.1-29.8-50.9c-1.9-7.7-3-15.8-3-24.1c0-0.3,0-0.6,0-0.9
	c0-3.5,0.2-6.9,0.5-10.3c2.2-22.2,11.3-42.4,25.2-58.3c2.3-2.6,4.7-5.2,7.3-7.5c0.5-0.5,1-0.9,1.5-1.4c16-14.4,36.9-22,58.3-22
	l236.1,0L345,76.3L288.5,134c-5.1,5.2-12.1,8.2-19.4,8.2H240.1z"/>
<path class="st0" d="M345.4,248c0,2.3-0.1,4.6-0.2,6.9c-0.2,3-0.5,5.9-1,8.8c-2.8,18.8-10.7,35.8-22,49.6c-2,2.5-4.2,4.8-6.4,7
	c-15.6,15.5-36.2,25.5-59,27.1c-2,0.1-4.1,0.2-6.2,0.2H32.9l71.6-75.3c5.2-5.5,12.3-8.6,19.7-8.6h29.5l-52.7,56.6h149.5
	c23-2.1,42.1-11.2,54.7-28.4c6-8.2,10.3-17.7,12.5-28.1c0.6-2.9,1.1-5.8,1.3-8.8c0.2-2.3,0.3-4.6,0.3-6.9c0-7.5-1.1-14.6-3.1-21.4
	c-8.7-29.5-34.8-50.9-65.7-50.9H131.5l-17.6-24.1h146.5c14.7,0,29.2,4.2,41.6,12.6c5,3.4,9.6,7.2,13.9,11.5
	c13.5,13.5,23.2,31.1,27.3,50.9C344.7,233.6,345.4,240.7,345.4,248z"/>
</svg>
